<?xml version="1.0"?>
<svg xmlns="http://www.w3.org/2000/svg" xmlns:xlink="http://www.w3.org/1999/xlink" xmlns:svgjs="http://svgjs.com/svgjs" version="1.1" width="512" height="512" x="0" y="0" viewBox="0 0 508 508" style="enable-background:new 0 0 512 512" xml:space="preserve" class=""><g>
<circle xmlns="http://www.w3.org/2000/svg" style="" cx="254" cy="254" r="254" fill="#ac90df" data-original="#90dfaa" class=""/>
<path xmlns="http://www.w3.org/2000/svg" style="" d="M72.4,431.6c46,47.2,110.4,76.4,181.6,76.4s135.6-29.2,181.6-76.4H72.4z" fill="#8a2be2" data-original="#2c9984" class=""/>
<g xmlns="http://www.w3.org/2000/svg">
	<path style="" d="M194.4,101.6c0,0,0.8,23.6-32,25.6c-7.2,0.4-40.8,3.2-34.4,38.8c0,0,5.2-24,37.2-24   C171.6,142,210.8,139.2,194.4,101.6z" fill="#ffffff" data-original="#ffffff" class=""/>
	<path style="" d="M304.8,101.6c0,0,0.8,23.6-32,25.6c-7.2,0.4-40.8,3.2-34.4,38.8c0,0,5.2-24,37.2-24   C282,142,320.8,139.2,304.8,101.6z" fill="#ffffff" data-original="#ffffff" class=""/>
	<path style="" d="M414.8,101.6c0,0,0.8,23.6-32,25.6c-7.2,0.4-40.8,3.2-34.4,38.8c0,0,5.2-24,37.2-24   C392,142,431.2,139.2,414.8,101.6z" fill="#ffffff" data-original="#ffffff" class=""/>
	<rect x="89.2" y="270.4" style="" width="303.6" height="161.2" fill="#ffffff" data-original="#ffffff" class=""/>
</g>
<rect xmlns="http://www.w3.org/2000/svg" x="89.2" y="417.2" style="" width="303.6" height="14.4" fill="#ced5e0" data-original="#ced5e0"/>
<g xmlns="http://www.w3.org/2000/svg">
	<rect x="102.8" y="284.8" style="" width="36.8" height="25.2" fill="#84dbff" data-original="#84dbff" class=""/>
	<rect x="162.8" y="284.8" style="" width="36.8" height="25.2" fill="#84dbff" data-original="#84dbff" class=""/>
	<rect x="222.4" y="284.8" style="" width="36.8" height="25.2" fill="#84dbff" data-original="#84dbff" class=""/>
	<rect x="282.4" y="284.8" style="" width="36.8" height="25.2" fill="#84dbff" data-original="#84dbff" class=""/>
	<rect x="342" y="284.8" style="" width="36.8" height="25.2" fill="#84dbff" data-original="#84dbff" class=""/>
	<rect x="102.8" y="321.6" style="" width="36.8" height="25.2" fill="#84dbff" data-original="#84dbff" class=""/>
	<rect x="162.8" y="321.6" style="" width="36.8" height="25.2" fill="#84dbff" data-original="#84dbff" class=""/>
	<rect x="222.4" y="321.6" style="" width="36.8" height="25.2" fill="#84dbff" data-original="#84dbff" class=""/>
	<rect x="282.4" y="321.6" style="" width="36.8" height="25.2" fill="#84dbff" data-original="#84dbff" class=""/>
	<rect x="342" y="321.6" style="" width="36.8" height="25.2" fill="#84dbff" data-original="#84dbff" class=""/>
</g>
<g xmlns="http://www.w3.org/2000/svg">
	<polygon style="" points="162.8,270.4 108,270.4 116.4,177.2 154.4,177.2  " fill="#e6e9ee" data-original="#e6e9ee" class=""/>
	<polygon style="" points="268.4,270.4 213.6,270.4 221.6,177.2 260,177.2  " fill="#e6e9ee" data-original="#e6e9ee" class=""/>
	<polygon style="" points="374,270.4 319.2,270.4 327.2,177.2 365.6,177.2  " fill="#e6e9ee" data-original="#e6e9ee" class=""/>
</g>
<rect xmlns="http://www.w3.org/2000/svg" x="222.8" y="376.4" style="" width="36" height="40.4" fill="#324a5e" data-original="#324a5e"/>
<polygon xmlns="http://www.w3.org/2000/svg" style="" points="278.8,431.6 203.2,431.6 222.8,417.2 259.2,417.2 " fill="#e6e9ee" data-original="#e6e9ee" class=""/>
<g xmlns="http://www.w3.org/2000/svg">
</g>
<g xmlns="http://www.w3.org/2000/svg">
</g>
<g xmlns="http://www.w3.org/2000/svg">
</g>
<g xmlns="http://www.w3.org/2000/svg">
</g>
<g xmlns="http://www.w3.org/2000/svg">
</g>
<g xmlns="http://www.w3.org/2000/svg">
</g>
<g xmlns="http://www.w3.org/2000/svg">
</g>
<g xmlns="http://www.w3.org/2000/svg">
</g>
<g xmlns="http://www.w3.org/2000/svg">
</g>
<g xmlns="http://www.w3.org/2000/svg">
</g>
<g xmlns="http://www.w3.org/2000/svg">
</g>
<g xmlns="http://www.w3.org/2000/svg">
</g>
<g xmlns="http://www.w3.org/2000/svg">
</g>
<g xmlns="http://www.w3.org/2000/svg">
</g>
<g xmlns="http://www.w3.org/2000/svg">
</g>
</g></svg>
