<?xml version="1.0"?>
<svg xmlns="http://www.w3.org/2000/svg" xmlns:xlink="http://www.w3.org/1999/xlink" xmlns:svgjs="http://svgjs.com/svgjs" version="1.1" width="512" height="512" x="0" y="0" viewBox="0 0 512 512" style="enable-background:new 0 0 512 512" xml:space="preserve" class=""><g><g xmlns="http://www.w3.org/2000/svg" id="flat"><path d="m304 331.156v-35.156h-80v35.156a95.263 95.263 0 0 1 -16 52.844h112a95.263 95.263 0 0 1 -16-52.844z" fill="#000000" data-original="#645960" style="" class=""/><path d="m304 320h-80v11.156c0 1.618-.056 3.233-.138 4.844h80.276c-.082-1.611-.138-3.226-.138-4.844z" fill="#000000" data-original="#4b4348" style="" class=""/><path d="m56 24h416a16 16 0 0 1 16 16v248h-448v-248a16 16 0 0 1 16-16z" fill="#ffffff" data-original="#e6e6e6" style="" class=""/><g fill="#ccc"><path d="m80 48v48h384v-48z" fill="#ffffff" data-original="#cccccc" style="" class=""/><path d="m360 224h104v56h-104z" fill="#ffffff" data-original="#cccccc" style="" class=""/><path d="m216 224h112v64h-112z" fill="#ffffff" data-original="#cccccc" style="" class=""/><path d="m80 128h104v64h-104z" fill="#ffffff" data-original="#cccccc" style="" class=""/><path d="m360 128h104v64h-104z" fill="#ffffff" data-original="#cccccc" style="" class=""/><path d="m216 128h112v64h-112z" fill="#ffffff" data-original="#cccccc" style="" class=""/><path d="m80 224h104v48h-104z" fill="#ffffff" data-original="#cccccc" style="" class=""/></g><path d="m352 232h104v56h-104z" fill="#8a2be2" data-original="#f55441" style="" class=""/><path d="m208 232h112v64h-112z" fill="#8a2be2" data-original="#ffaf00" style="" class=""/><path d="m40 280h448v32a16 16 0 0 1 -16 16h-416a16 16 0 0 1 -16-16z" fill="#315a70" data-original="#315a70" style="" class=""/><rect fill="#ffffff" height="16" rx="8" width="16" x="256" y="296" data-original="#e6e6e6" style="" class=""/><path d="m72 56v48h384v-48z" fill="#8a2be2" data-original="#ffaf00" style="" class=""/><path d="m72 136h104v64h-104z" fill="#8a2be2" data-original="#6ad3d3" style="" class=""/><path d="m352 136h104v64h-104z" fill="#8a2be2" data-original="#19af19" style="" class=""/><path d="m208 136h112v64h-112z" fill="#8a2be2" data-original="#f55441" style="" class=""/><path d="m72 232h104v48h-104z" fill="#8a2be2" data-original="#19af19" style="" class=""/><rect fill="#000000" height="224" rx="16" width="160" x="24" y="264" data-original="#645960" style="" class=""/><path d="m24 296h160v160h-160z" fill="#ffffff" data-original="#e6e6e6" style="" class=""/><path d="m24 440v16h160v-70.015a262.819 262.819 0 0 1 -160 54.015z" fill="#ffffff" data-original="#cccccc" style="" class=""/><path d="m368 360h80v128h-80z" fill="#ffffff" data-original="#e6e6e6" style="" class=""/><path d="m368 442.308v45.692h80v-120.193a265.375 265.375 0 0 1 -80 74.501z" fill="#ffffff" data-original="#cccccc" style="" class=""/><path d="m368 456h80v32h-80z" fill="#000000" data-original="#645960" style="" class=""/><rect fill="#ffffff" height="16" rx="8" width="16" x="400" y="464" data-original="#e6e6e6" style="" class=""/><path d="m384 384h48v16h-48z" fill="#8a2be2" data-original="#f55441" style="" class=""/><path d="m384 416h48v16h-48z" fill="#8a2be2" data-original="#ffaf00" style="" class=""/><rect fill="#ffffff" height="16" rx="8" width="16" x="96" y="464" data-original="#e6e6e6" style="" class=""/><path d="m24 296h160v8h-160z" fill="#ffffff" data-original="#cccccc" style="" class=""/><path d="m56 328h96v32h-96z" fill="#8a2be2" data-original="#ffaf00" style="" class=""/><path d="m128 384h32v16h-32z" fill="#8a2be2" data-original="#19af19" style="" class=""/><path d="m128 416h32v16h-32z" fill="#8a2be2" data-original="#f55441" style="" class=""/><path d="m88 384h32v16h-32z" fill="#8a2be2" data-original="#f55441" style="" class=""/><path d="m88 416h32v16h-32z" fill="#8a2be2" data-original="#ffaf00" style="" class=""/><path d="m48 384h32v16h-32z" fill="#8a2be2" data-original="#6ad3d3" style="" class=""/><path d="m48 416h32v16h-32z" fill="#8a2be2" data-original="#19af19" style="" class=""/><path d="m421.289 400h10.711v-11.678q-5.177 6.003-10.711 11.678z" fill="#8a2be2" data-original="#d3463c" style="" class=""/><path d="m384 431.866v.134h48v-16h-27.678q-9.756 8.415-20.322 15.866z" fill="#8a2be2" data-original="#e59900" style="" class=""/><path d="m88.7 432h31.3v-10.007a262.045 262.045 0 0 1 -31.3 10.007z" fill="#8a2be2" data-original="#e59900" style="" class=""/><path d="m128 418.711v13.289h32v-16h-25.9q-3.03 1.392-6.1 2.711z" fill="#8a2be2" data-original="#d3463c" style="" class=""/></g></g></svg>
