<?xml version="1.0"?>
<svg xmlns="http://www.w3.org/2000/svg" xmlns:xlink="http://www.w3.org/1999/xlink" xmlns:svgjs="http://svgjs.com/svgjs" version="1.1" width="512" height="512" x="0" y="0" viewBox="0 0 448 448" style="enable-background:new 0 0 512 512" xml:space="preserve"><g><path xmlns="http://www.w3.org/2000/svg" d="m377.398438 296.121094c-2.328126-.414063-4.722657.222656-6.539063 1.746094-1.8125 1.519531-2.859375 3.765624-2.859375 6.132812 0 4.417969-3.582031 8-8 8s-8-3.582031-8-8-3.582031-8-8-8-8 3.582031-8 8-3.582031 8-8 8-8-3.582031-8-8-3.582031-8-8-8-8 3.582031-8 8-3.582031 8-8 8-8-3.582031-8-8v-63.144531c.152344-4.109375-2.605469-7.757813-6.601562-8.734375-2.347657-.429688-4.761719.222656-6.574219 1.773437-1.792969 1.523438-2.824219 3.753907-2.824219 6.105469v112c0 2.882812-1.550781 5.542969-4.0625 6.960938-2.507812 1.421874-5.585938 1.378906-8.058594-.105469l-33.351562-20c-1.789063-1.085938-4.011719-1.171875-5.878906-.222657l-1.257813.625c-1.921875.960938-3.195313 2.863282-3.359375 5.007813s.808594 4.21875 2.5625 5.460937l48 34.28125h117.40625v-79.152343c.152344-4.109375-2.605469-7.757813-6.601562-8.734375zm0 0" fill="#8a2be2" data-original="#000000" style=""/><path xmlns="http://www.w3.org/2000/svg" d="m408 280v-248h-368v256h216v-48c-.003906-7.066406 3.105469-13.777344 8.503906-18.339844 5.394532-4.566406 12.527344-6.519531 19.496094-5.339844 11.726562 2.261719 20.148438 12.59375 20 24.535157v40.511719c8.28125-2.714844 17.378906-.910157 24 4.761718 9.101562-8.171875 22.898438-8.171875 32 0 .160156-.144531.3125-.28125.472656-.410156 5.398438-4.582031 12.539063-6.558594 19.527344-5.398438 5.285156.910157 10.089844 3.625 13.601562 7.679688h14.398438zm-208-232h16v16h-16zm-64 0h48v16h-48zm-80 0h16v16h-16zm32 208h-32v-16h32zm0-32h-32v-16h32zm0-32h-32v-16h32zm0-32h-32v-16h32zm0-32h-32v-16h32zm0-32h-32v-16h32zm32 176h-16v-224h16zm48-16h-32v-16h32zm0-32h-32v-16h32zm32 32h-16v-16h16zm0-32h-16v-16h16zm48 0h-16v-16h16zm112 32h-32v-16h32zm0-32h-32v-16h32zm32 32h-16v-16h16zm0-32h-16v-16h16zm-17.601562-91.199219c-1.386719 1.863281-3.515626 3.03125-5.832032 3.199219-2.316406.203125-4.601562-.648438-6.222656-2.320312l-10.34375-10.367188-18.34375 18.34375c-1.570312 1.617188-3.765625 2.46875-6.015625 2.335938-2.246094-.105469-4.347656-1.144532-5.792969-2.863282l-33.847656-40.632812-33.847656 40.632812c-1.445313 1.71875-3.546875 2.757813-5.792969 2.863282-2.246094.125-4.441406-.726563-6.015625-2.335938l-18.34375-18.34375-34.34375 34.34375c-1.5 1.5-3.535156 2.34375-5.65625 2.34375-.257812 0-.519531 0-.800781 0-2.382813-.238281-4.535157-1.527344-5.863281-3.519531l-10.582032-15.886719-14.753906 14.71875v20.6875h240v16h-248c-4.417969 0-8-3.582031-8-8v-104h16v52.6875l10.34375-10.34375c1.695312-1.695312 4.058594-2.539062 6.445312-2.304688 2.382813.234376 4.535157 1.527344 5.867188 3.519532l10.582031 15.890625 33.105469-33.105469c3.125-3.121094 8.1875-3.121094 11.3125 0l17.808594 17.808594 34.398437-41.28125c1.574219-1.738282 3.808594-2.730469 6.152344-2.730469s4.578125.992187 6.152344 2.730469l34.398437 41.28125 17.808594-17.808594c3.125-3.121094 8.1875-3.121094 11.3125 0l9.480469 9.480469 18.433593-24.625 12.796876 9.601562zm0 0" fill="#8a2be2" data-original="#000000" style=""/><path xmlns="http://www.w3.org/2000/svg" d="m424 0h-400c-13.253906 0-24 10.746094-24 24v272c0 13.253906 10.746094 24 24 24h232v-16h-224c-4.417969 0-8-3.582031-8-8v-272c0-4.417969 3.582031-8 8-8h384c4.417969 0 8 3.582031 8 8v272c0 4.417969-3.582031 8-8 8h-16.070312c0 .289062.070312.566406.070312.855469v15.144531h24c13.253906 0 24-10.746094 24-24v-272c0-13.253906-10.746094-24-24-24zm0 0" fill="#8a2be2" data-original="#000000" style=""/></g></svg>
